<?xml version="1.0" standalone="no"?>
<!DOCTYPE svg PUBLIC "-//W3C//DTD SVG 1.1//EN" "http://www.w3.org/Graphics/SVG/1.1/DTD/svg11.dtd">
<svg width="100%" height="100%" viewBox="0 0 264 206" version="1.1" xmlns="http://www.w3.org/2000/svg" xmlns:xlink="http://www.w3.org/1999/xlink" xml:space="preserve" style="fill-rule:evenodd;clip-rule:evenodd;stroke-linejoin:round;stroke-miterlimit:1.41421;">
    <g id="Prancheta1" transform="matrix(1,0,0,1,-22.8735,23.9674)">
        <g transform="matrix(1.95313,0,0,2.08333,-215.101,-536.446)">
            <path d="M249.417,301.738C249.417,293.483 241.118,286.789 230.88,286.789C228.813,286.789 226.832,287.074 224.975,287.577C224.623,274.037 211.996,263.154 196.46,263.154C181.678,263.154 169.522,273.003 168.073,285.623C166.23,285.008 164.212,284.664 162.093,284.664C155.475,284.664 149.829,287.985 147.547,292.67C146.229,292.368 144.843,292.196 143.404,292.196C135.017,292.196 128.218,297.679 128.218,304.442C128.218,311.205 135.017,316.687 143.404,316.687C143.755,316.687 144.098,316.663 144.443,316.644C144.718,316.672 144.997,316.687 145.28,316.687L232.934,316.687C234.005,316.687 235.026,316.476 235.966,316.104C243.727,314.319 249.417,308.57 249.417,301.738Z" style="fill:white;fill-rule:nonzero;"/>
        </g>
    </g>
</svg>
