<?xml version="1.0" standalone="no"?>
<!DOCTYPE svg PUBLIC "-//W3C//DTD SVG 1.1//EN" "http://www.w3.org/Graphics/SVG/1.1/DTD/svg11.dtd">
<svg width="100%" height="100%" viewBox="0 0 512 512" version="1.1" xmlns="http://www.w3.org/2000/svg" xmlns:xlink="http://www.w3.org/1999/xlink" xml:space="preserve" style="fill-rule:evenodd;clip-rule:evenodd;stroke-linejoin:round;stroke-miterlimit:1.41421;">
    <g>
        <path d="M477.347,488.677C465.235,470.508 448.265,456.285 428.279,447.548L326.278,402.922C321.641,400.894 316.292,401.34 312.056,404.111C307.82,406.882 305.266,411.603 305.266,416.665L305.266,432.732C305.266,459.898 283.165,481.999 255.999,481.999C228.833,481.999 206.732,459.898 206.732,432.732L206.732,416.665C206.732,411.603 204.179,406.882 199.942,404.111C195.706,401.34 190.357,400.894 185.72,402.922L83.72,447.548C63.734,456.286 46.764,470.508 34.652,488.677C30.056,495.57 31.919,504.883 38.812,509.479C41.369,511.184 44.26,512 47.119,512L464.88,512C467.739,512 470.63,511.184 473.187,509.479C480.08,504.883 481.943,495.57 477.347,488.677L477.347,488.677Z" style="fill:rgb(13,45,165);fill-rule:nonzero;"/>
        <path d="M473.187,509.479C480.08,504.883 481.942,495.57 477.347,488.677C465.235,470.508 448.265,456.285 428.279,447.548L326.278,402.922C321.641,400.894 316.292,401.34 312.056,404.111C307.82,406.882 305.266,411.603 305.266,416.665L305.266,432.732C305.266,459.898 283.165,481.999 255.999,481.999L255.999,512L464.88,512C467.739,512 470.63,511.184 473.187,509.479L473.187,509.479Z" style="fill:rgb(13,45,100);fill-rule:nonzero;"/>
        <path d="M320.266,377.566L191.733,377.566C183.449,377.566 176.733,384.282 176.733,392.566L176.733,432.733C176.733,476.511 212.222,512 256,512C299.778,512 335.267,476.511 335.267,432.733L335.267,392.566C335.266,384.282 328.551,377.566 320.266,377.566L320.266,377.566Z" style="fill:rgb(130,80,60);fill-rule:nonzero;"/>
        <path d="M335.266,432.731L335.266,392.564C335.266,384.28 328.55,377.564 320.266,377.564L255.999,377.564L255.999,511.999C299.777,512 335.266,476.509 335.266,432.731Z" style="fill:rgb(80,50,30);fill-rule:nonzero;"/>
        <g transform="matrix(1,0,0,1,46,0)">
            <path d="M143.533,192.799L112.175,192.799C86.328,192.799 64.704,213.283 64.273,239.127C63.832,265.527 85.1,287.066 111.4,287.066L143.533,287.066C151.817,287.066 158.533,280.35 158.533,272.066L158.533,207.799C158.533,199.515 151.817,192.799 143.533,192.799L143.533,192.799Z" style="fill:rgb(80,50,30);fill-rule:nonzero;"/>
        </g>
        <g transform="matrix(1,0,0,1,-46,0)">
            <path d="M368.467,192.799L399.825,192.799C425.672,192.799 447.296,213.283 447.727,239.127C448.168,265.527 426.9,287.066 400.6,287.066L368.467,287.066C360.183,287.066 353.467,280.35 353.467,272.066L353.467,207.799C353.467,199.515 360.182,192.799 368.467,192.799L368.467,192.799Z" style="fill:rgb(130,80,60);fill-rule:nonzero;"/>
        </g>
        <g transform="matrix(1,0,0,1.32466,0,-108.846)">
            <path d="M361.759,333.683L297.492,301.55C271.511,288.556 240.49,288.556 214.509,301.549L150.241,333.683C145.592,336.007 140.069,335.759 135.647,333.026C131.225,330.293 128.533,325.465 128.533,320.266L128.533,223.866C128.533,180.158 164.092,144.599 207.8,144.599L304.2,144.599C347.908,144.599 383.467,180.158 383.467,223.866L383.467,320.266C383.467,325.465 380.775,330.293 376.353,333.026C371.926,335.762 366.403,336.005 361.759,333.683L361.759,333.683Z" style="fill:rgb(130,80,60);fill-rule:nonzero;"/>
        </g>
        <g transform="matrix(1,0,0,1.32404,0,-108.64)">
            <path d="M297.492,301.549L361.759,333.682C366.404,336.004 371.926,335.761 376.353,333.025C380.775,330.292 383.467,325.464 383.467,320.265L383.467,223.865C383.467,180.157 347.908,144.598 304.2,144.598L255.999,144.598L255.999,291.802C270.25,291.804 284.501,295.052 297.492,301.549L297.492,301.549Z" style="fill:rgb(80,50,30);fill-rule:nonzero;"/>
        </g>
        <circle cx="207.8" cy="223.866" r="15" style="fill:rgb(40,55,65);"/>
        <circle cx="304.2" cy="223.866" r="15" style="fill:rgb(10,20,30);"/>
        <path d="M255.999,422.648C231.622,422.648 207.246,417.093 185.025,405.983C162.665,394.801 128.533,370.388 128.533,320.266C128.533,314.584 131.743,309.391 136.825,306.849L201.092,274.716C235.474,257.522 276.528,257.522 310.91,274.717L375.175,306.849C380.257,309.39 383.467,314.584 383.467,320.266C383.467,370.446 349.259,394.838 326.976,405.982C304.754,417.093 280.376,422.648 255.999,422.648L255.999,422.648Z" style="fill:rgb(240,245,250);fill-rule:nonzero;"/>
        <path d="M383.467,320.266C383.467,314.584 380.257,309.391 375.175,306.849L310.91,274.717C293.719,266.119 274.859,261.82 256,261.821L256,422.648C280.377,422.648 304.755,417.093 326.977,405.982C349.259,394.838 383.467,370.447 383.467,320.266Z" style="fill:rgb(223,227,233);fill-rule:nonzero;"/>
    </g>
</svg>
