<?xml version="1.0" standalone="no"?>
<!DOCTYPE svg PUBLIC "-//W3C//DTD SVG 1.1//EN" "http://www.w3.org/Graphics/SVG/1.1/DTD/svg11.dtd">
<svg width="100%" height="100%" viewBox="0 0 3334 3334" version="1.1" xmlns="http://www.w3.org/2000/svg" xmlns:xlink="http://www.w3.org/1999/xlink" xml:space="preserve" style="fill-rule:evenodd;clip-rule:evenodd;stroke-linejoin:round;stroke-miterlimit:1.41421;">
    <g transform="matrix(4.16667,0,0,4.16667,0,0)">
        <path d="M93.8,473.5C133.784,604.683 255.739,700.128 400,700.128C544.261,700.128 666.215,604.683 706.199,473.5L93.8,473.5Z" style="fill:rgb(136,147,119);fill-rule:nonzero;"/>
        <path d="M553.484,473.5C524.881,575.006 446.777,660.271 338.386,693.212C337.718,693.416 337.047,693.596 336.379,693.795C356.942,697.942 378.215,700.128 400,700.128C544.261,700.128 666.215,604.683 706.199,473.5L553.484,473.5Z" style="fill:rgb(149,161,128);fill-rule:nonzero;"/>
        <path d="M594.188,172.197C599.16,169.968 605.409,168.17 613.476,166.272C605.409,164.375 599.159,162.577 594.188,160.348C597.379,155.931 601.891,151.249 607.929,145.571C599.994,147.961 593.683,149.527 588.264,150.082C588.818,144.662 590.384,138.352 592.775,130.415C587.097,136.455 582.414,140.967 577.995,144.157C575.768,139.187 573.97,132.936 572.07,124.869C570.175,132.935 568.376,139.186 566.148,144.157C561.73,140.967 557.047,136.455 551.369,130.417C553.76,138.352 555.326,144.662 555.882,150.082C550.462,149.527 544.151,147.961 536.215,145.572C542.253,151.249 546.766,155.931 549.957,160.348C544.985,162.577 538.734,164.375 530.67,166.272C538.734,168.171 544.985,169.968 549.957,172.198C546.766,176.614 542.254,181.297 536.215,186.974C544.152,184.584 550.462,183.018 555.882,182.464C555.328,187.883 553.761,194.193 551.371,202.128C557.048,196.091 561.731,191.58 566.148,188.389C568.376,193.36 570.175,199.61 572.07,207.676C573.97,199.61 575.768,193.359 577.995,188.389C582.413,191.579 587.096,196.091 592.773,202.129C590.384,194.193 588.817,187.883 588.264,182.464C593.683,183.018 599.994,184.584 607.929,186.974C601.892,181.297 597.379,176.614 594.188,172.197Z" style="fill:rgb(242,210,65);fill-rule:nonzero;"/>
        <path d="M566.148,144.157C561.73,140.967 557.047,136.455 551.369,130.417C553.76,138.352 555.326,144.662 555.882,150.082C550.462,149.527 544.151,147.961 536.215,145.572C542.253,151.249 546.766,155.931 549.957,160.348C544.985,162.577 538.734,164.375 530.67,166.272C538.734,168.171 544.985,169.968 549.957,172.198C546.766,176.614 542.254,181.297 536.215,186.974C544.152,184.584 550.462,183.018 555.882,182.464C555.328,187.883 553.761,194.193 551.371,202.128C557.048,196.091 561.731,191.58 566.148,188.389C568.376,193.36 570.175,199.61 572.07,207.676L572.07,124.869C570.175,132.935 568.376,139.186 566.148,144.157Z" style="fill:rgb(245,186,59);fill-rule:nonzero;"/>
        <path d="M598.544,166.272C598.544,180.893 586.69,192.745 572.07,192.745C557.452,192.745 545.6,180.893 545.6,166.272C545.6,151.652 557.452,139.8 572.07,139.8C586.69,139.8 598.544,151.652 598.544,166.272Z" style="fill:rgb(236,233,78);fill-rule:nonzero;"/>
        <path d="M545.6,166.272C545.6,180.893 557.452,192.745 572.07,192.745L572.07,139.8C557.452,139.8 545.6,151.652 545.6,166.272Z" style="fill:rgb(229,215,62);fill-rule:nonzero;"/>
        <path d="M269.33,231.616C278.464,231.079 285.671,224.936 285.671,217.432C285.671,210.424 279.386,204.603 271.115,203.426C270.387,199.108 265.941,195.785 260.549,195.785C259.732,195.785 258.937,195.868 258.172,196.012C255.302,184.741 244.776,176.379 232.22,176.379C218.463,176.379 207.139,186.419 205.659,199.329C205.104,199.279 204.544,199.252 203.975,199.252C196.177,199.252 189.706,203.935 188.369,210.1C181.529,210.587 176.165,215.214 176.165,220.855C176.165,226.822 182.162,231.659 189.562,231.659C189.871,231.659 190.174,231.638 190.479,231.622C190.72,231.646 190.967,231.659 191.216,231.659L268.553,231.659C268.673,231.659 268.791,231.647 268.909,231.641C268.945,231.64 268.98,231.637 269.016,231.635C269.12,231.629 269.228,231.627 269.33,231.616Z" style="fill:white;fill-rule:nonzero;"/>
        <path d="M706.199,473.354C706.199,500.646 569.108,522.771 400,522.771C230.891,522.771 93.8,500.646 93.8,473.354C93.8,446.063 230.891,423.938 400,423.938C569.108,423.938 706.199,446.063 706.199,473.354Z" style="fill:rgb(112,198,163);fill-rule:nonzero;"/>
        <rect x="126.415" y="448.806" width="3.453" height="16.471" style="fill:rgb(110,77,43);fill-rule:nonzero;"/>
        <path d="M142.77,433.798C143.983,432.687 144.745,431.09 144.745,429.316C144.745,425.96 142.023,423.239 138.667,423.239C138.362,423.239 138.063,423.263 137.77,423.305C137.77,423.282 137.771,423.263 137.771,423.239C137.771,418.396 133.846,414.472 129.005,414.472C124.627,414.472 121,417.681 120.345,421.874C120.115,421.855 119.883,421.844 119.648,421.844C114.807,421.844 110.882,425.77 110.882,430.61C110.882,432.202 111.308,433.692 112.049,434.979C110.346,436.579 109.281,438.85 109.281,441.369C109.281,446.211 113.205,450.135 118.047,450.135C118.787,450.135 119.505,450.042 120.19,449.87C121.925,452.58 124.958,454.377 128.414,454.377C131.729,454.377 134.655,452.723 136.42,450.198C136.925,450.287 137.441,450.335 137.971,450.335C142.922,450.335 146.936,446.321 146.936,441.369C146.936,438.185 145.273,435.39 142.77,433.798Z" style="fill:rgb(85,186,95);fill-rule:nonzero;"/>
        <path d="M140.156,432.39C139.875,430.512 138.718,428.979 137.161,428.15C136.269,424.242 132.504,421.624 128.477,422.228C126.671,422.498 125.107,423.371 123.956,424.611C122.812,423.866 121.401,423.519 119.945,423.737C116.791,424.208 114.617,427.147 115.088,430.302C115.274,431.544 115.844,432.632 116.658,433.47C115.913,435.084 115.612,436.93 115.896,438.821C116.669,443.994 121.49,447.561 126.662,446.788C127.715,446.629 128.7,446.301 129.595,445.838C130.85,447.225 132.75,447.979 134.736,447.682C137.89,447.209 140.064,444.271 139.592,441.117C139.4,439.826 138.793,438.7 137.928,437.853C139.558,436.617 140.48,434.556 140.156,432.39Z" style="fill:rgb(100,190,103);fill-rule:nonzero;"/>
        <path d="M681.197,473.354C681.197,497.658 555.301,517.359 400,517.359C244.699,517.359 118.803,497.658 118.803,473.354C118.803,449.052 244.699,429.352 400,429.352C555.301,429.352 681.197,449.052 681.197,473.354Z" style="fill:rgb(112,198,163);fill-rule:nonzero;"/>
        <path d="M278.605,397.461L430.514,167.846L582.424,397.461L278.605,397.461Z" style="fill:rgb(117,153,196);fill-rule:nonzero;"/>
        <path d="M278.605,397.461L430.514,397.461L430.514,167.846L278.605,397.461Z" style="fill:rgb(92,134,186);fill-rule:nonzero;"/>
        <path d="M430.514,167.846L430.514,238.536C432.101,243.867 433.818,249.068 440.211,249.068C452.597,249.068 443.308,228.102 454.66,229.548C464.52,230.803 479.822,251.68 491.792,260.47L430.514,167.846Z" style="fill:rgb(185,207,219);fill-rule:nonzero;"/>
        <path d="M392.812,224.834C397.729,221.721 401.552,219.994 403.053,220.872C409.246,224.487 400.99,234.608 409.246,237.501C417.505,240.393 412.344,225.21 422.666,227.378C427.658,228.428 429.027,233.538 430.514,238.536L430.514,167.846L392.812,224.834Z" style="fill:rgb(143,175,209);fill-rule:nonzero;"/>
        <path d="M499.979,454.647C499.979,472.858 425.191,487.622 332.935,487.622C240.682,487.622 165.894,472.858 165.894,454.647C165.894,436.437 240.682,421.674 332.935,421.674C425.191,421.674 499.979,436.437 499.979,454.647Z" style="fill:rgb(115,152,196);fill-rule:nonzero;"/>
        <path d="M165.895,453.683L332.937,99.209L499.979,453.683L165.895,453.683Z" style="fill:rgb(139,170,207);fill-rule:nonzero;"/>
        <path d="M165.895,453.683L332.937,453.683L332.937,99.209L165.895,453.683Z" style="fill:rgb(115,152,196);fill-rule:nonzero;"/>
        <path d="M332.937,99.209L332.937,208.338C334.68,216.568 336.569,224.598 343.599,224.598C357.218,224.598 347.004,192.23 359.488,194.463C370.329,196.401 387.158,228.631 400.318,242.2L332.937,99.209Z" style="fill:rgb(210,237,243);fill-rule:nonzero;"/>
        <path d="M291.478,187.187C296.886,182.382 301.088,179.713 302.741,181.07C309.551,186.65 300.471,202.276 309.551,206.74C318.631,211.204 312.956,187.767 324.306,191.116C329.796,192.734 331.302,200.625 332.937,208.338L332.937,99.209L291.478,187.187Z" style="fill:rgb(174,199,213);fill-rule:nonzero;"/>
        <path d="M675.102,470.881C675.102,482.53 601.696,491.976 511.148,491.976C420.601,491.976 347.195,482.53 347.195,470.881C347.195,459.23 420.601,449.789 511.148,449.789C601.696,449.789 675.102,459.23 675.102,470.881Z" style="fill:rgb(139,170,207);fill-rule:nonzero;"/>
        <path d="M347.195,469.859L511.149,250.31L675.102,469.859L347.195,469.859Z" style="fill:rgb(139,170,207);fill-rule:nonzero;"/>
        <path d="M347.195,469.859L511.149,469.859L511.149,250.31L347.195,469.859Z" style="fill:rgb(115,152,196);fill-rule:nonzero;"/>
        <path d="M511.149,250.31L511.149,317.901C512.861,322.998 514.715,327.973 521.614,327.973C534.982,327.973 524.958,307.924 537.21,309.306C547.85,310.508 564.37,330.469 577.286,338.873L511.149,250.31Z" style="fill:rgb(210,237,243);fill-rule:nonzero;"/>
        <path d="M470.458,304.8C475.765,301.825 479.889,300.171 481.513,301.011C488.196,304.468 479.284,314.146 488.196,316.912C497.107,319.676 491.538,305.16 502.678,307.233C508.067,308.236 509.545,313.123 511.149,317.901L511.149,250.31L470.458,304.8Z" style="fill:rgb(174,199,213);fill-rule:nonzero;"/>
        <path d="M490.651,473.674C490.651,484.22 422.638,492.768 338.741,492.768C254.846,492.768 186.834,484.22 186.834,473.674C186.834,463.13 254.846,454.579 338.741,454.579C422.638,454.579 490.651,463.13 490.651,473.674Z" style="fill:rgb(143,174,208);fill-rule:nonzero;"/>
        <path d="M186.834,472.507L338.743,286.642L490.651,472.507L186.834,472.507Z" style="fill:rgb(172,199,212);fill-rule:nonzero;"/>
        <path d="M186.834,472.507L338.743,472.507L338.743,286.642L186.834,472.507Z" style="fill:rgb(143,174,208);fill-rule:nonzero;"/>
        <path d="M338.743,286.642L338.743,364.476C340.721,367.915 343.682,370.534 348.819,370.806C364.703,371.65 350.143,345.063 359.85,345.063C369.557,345.063 370.88,365.321 381.469,366.165C390.97,366.921 384.144,352.063 392.197,352.046L338.743,286.642Z" style="fill:rgb(242,250,252);fill-rule:nonzero;"/>
        <path d="M290.815,345.283C294.06,345.505 296.406,346.512 296.757,348.861C298.081,357.724 291.021,367.853 302.493,370.806C313.965,373.761 319.258,345.063 328.524,345.908C334.793,346.479 334.606,357.283 338.743,364.476L338.743,286.642L290.815,345.283Z" style="fill:rgb(202,219,227);fill-rule:nonzero;"/>
        <path d="M304.549,465.496C266.252,445.574 261,355.197 213.357,355.197C165.717,355.197 160.465,445.574 122.167,465.496C113.897,466.635 154.216,486.297 213.357,486.297C272.501,486.297 312.821,466.635 304.549,465.496Z" style="fill:rgb(88,162,144);fill-rule:nonzero;"/>
        <path d="M534.785,468.628C493.941,449.947 488.338,365.2 437.528,365.2C386.718,365.2 381.115,449.947 340.271,468.628C331.449,469.696 254.011,506.886 437.528,506.886C621.045,506.886 543.606,469.696 534.785,468.628Z" style="fill:rgb(88,162,144);fill-rule:nonzero;"/>
        <path d="M433.332,488.34L433.908,488.34C433.707,488.34 433.513,488.327 433.312,488.326C431.5,487.15 425.638,486.056 416.662,485.1C375.114,468.369 369.414,392.47 317.726,392.47C266.037,392.47 260.338,468.369 218.789,485.1C209.814,486.056 203.951,487.15 202.141,488.326C201.94,488.327 201.746,488.34 201.543,488.34L202.12,488.34C201.74,488.591 201.543,488.845 201.543,489.104C201.543,493.319 253.56,496.738 317.726,496.738C381.892,496.738 433.908,493.319 433.908,489.104C433.908,488.845 433.713,488.591 433.332,488.34Z" style="fill:rgb(88,162,144);fill-rule:nonzero;"/>
        <rect x="674.934" y="450.668" width="4.529" height="15.686" style="fill:rgb(110,77,43);fill-rule:nonzero;"/>
        <path d="M690.762,454.019L686.199,447.785L687.133,447.785C689.332,447.785 690.071,446.331 688.77,444.556L683.786,437.744L685.399,437.744C687.218,437.744 687.826,436.544 686.754,435.078L679.148,424.687C678.077,423.219 676.32,423.219 675.248,424.687L667.645,435.078C666.57,436.544 667.181,437.744 668.996,437.744L670.611,437.744L665.627,444.556C664.326,446.331 665.063,447.785 667.265,447.785L668.196,447.785L663.637,454.019C662.111,456.102 662.976,457.804 665.557,457.804L688.841,457.804C691.42,457.804 692.285,456.102 690.762,454.019Z" style="fill:rgb(90,133,108);fill-rule:nonzero;"/>
        <path d="M675.248,424.687L667.645,435.078C666.57,436.544 667.181,437.744 668.996,437.744L670.611,437.744L665.627,444.556C664.326,446.331 665.063,447.785 667.265,447.785L668.196,447.785L663.637,454.019C662.111,456.102 662.976,457.804 665.557,457.804L677.199,457.804L677.199,423.586C676.492,423.586 675.784,423.953 675.248,424.687Z" style="fill:rgb(78,111,89);fill-rule:nonzero;"/>
        <path d="M683.953,465.679C647.046,451.178 641.982,385.395 596.068,385.395C550.156,385.395 545.095,451.178 508.187,465.679C500.217,466.508 517.266,492.225 598.385,492.225C679.503,492.225 691.924,466.508 683.953,465.679Z" style="fill:rgb(88,162,144);fill-rule:nonzero;"/>
        <path d="M249.417,301.738C249.417,293.483 241.118,286.789 230.88,286.789C228.813,286.789 226.832,287.074 224.975,287.577C224.623,274.037 211.996,263.154 196.46,263.154C181.678,263.154 169.522,273.003 168.073,285.623C166.23,285.008 164.212,284.664 162.093,284.664C155.475,284.664 149.829,287.985 147.547,292.67C146.229,292.368 144.843,292.196 143.404,292.196C135.017,292.196 128.218,297.679 128.218,304.442C128.218,311.205 135.017,316.687 143.404,316.687C143.755,316.687 144.098,316.663 144.443,316.644C144.718,316.672 144.997,316.687 145.28,316.687L232.934,316.687C234.005,316.687 235.026,316.476 235.966,316.104C243.727,314.319 249.417,308.57 249.417,301.738Z" style="fill:white;fill-rule:nonzero;"/>
        <path d="M606.348,348.091C615.044,347.58 621.904,341.73 621.904,334.586C621.904,327.914 615.922,322.372 608.047,321.25C607.353,317.141 603.121,313.976 597.986,313.976C597.208,313.976 596.453,314.055 595.724,314.193C592.99,303.461 582.967,295.5 571.015,295.5C557.916,295.5 547.134,305.06 545.725,317.35C545.197,317.304 544.664,317.278 544.122,317.278C536.697,317.278 530.535,321.735 529.263,327.606C522.75,328.07 517.643,332.475 517.643,337.846C517.643,343.527 523.354,348.132 530.397,348.132C530.692,348.132 530.981,348.113 531.271,348.096C531.503,348.12 531.737,348.132 531.974,348.132L605.608,348.132C605.722,348.132 605.832,348.12 605.945,348.115C605.979,348.114 606.015,348.111 606.049,348.109C606.146,348.104 606.249,348.103 606.348,348.091Z" style="fill:white;fill-rule:nonzero;"/>
        <path d="M445.708,487.72C415.59,473.943 411.46,411.455 373.994,411.455C336.529,411.455 332.397,473.943 302.28,487.72C295.776,488.506 238.675,515.93 373.994,515.93C509.313,515.93 452.211,488.506 445.708,487.72Z" style="fill:rgb(112,198,163);fill-rule:nonzero;"/>
        <path d="M298.021,480.172C273.168,470.135 269.76,424.594 238.843,424.594C207.926,424.594 204.517,470.135 179.663,480.172C174.294,480.747 127.174,500.731 238.843,500.731C350.509,500.731 303.39,480.747 298.021,480.172Z" style="fill:rgb(112,198,163);fill-rule:nonzero;"/>
        <path d="M575.883,491.363C549.341,479.225 545.7,418.858 512.684,418.858C479.666,418.858 476.026,479.225 449.484,491.363C443.752,492.057 393.431,510.928 512.684,510.928C631.936,510.928 581.614,492.057 575.883,491.363Z" style="fill:rgb(112,198,163);fill-rule:nonzero;"/>
        <rect x="304.162" y="484.855" width="3.103" height="14.799" style="fill:rgb(110,77,43);fill-rule:nonzero;"/>
        <path d="M318.856,471.372C319.947,470.372 320.63,468.939 320.63,467.344C320.63,464.329 318.187,461.885 315.171,461.885C314.897,461.885 314.627,461.905 314.364,461.944C314.364,461.924 314.365,461.905 314.365,461.885C314.365,457.534 310.839,454.007 306.49,454.007C302.557,454.007 299.298,456.89 298.708,460.659C298.501,460.643 298.293,460.631 298.083,460.631C293.734,460.631 290.207,464.157 290.207,468.507C290.207,469.937 290.59,471.277 291.256,472.434C289.725,473.869 288.768,475.908 288.768,478.175C288.768,482.523 292.294,486.049 296.644,486.049C297.309,486.049 297.954,485.967 298.569,485.812C300.128,488.245 302.854,489.86 305.959,489.86C308.937,489.86 311.566,488.374 313.152,486.105C313.604,486.185 314.069,486.229 314.544,486.229C318.994,486.229 322.6,482.622 322.6,478.175C322.6,475.313 321.105,472.801 318.856,471.372Z" style="fill:rgb(85,186,95);fill-rule:nonzero;"/>
        <path d="M316.508,470.105C316.256,468.418 315.216,467.041 313.817,466.295C313.016,462.787 309.634,460.433 306.015,460.976C304.393,461.218 302.987,462.003 301.953,463.118C300.926,462.447 299.658,462.137 298.35,462.33C295.516,462.755 293.563,465.397 293.986,468.23C294.152,469.346 294.665,470.324 295.396,471.075C294.727,472.527 294.457,474.184 294.712,475.885C295.407,480.531 299.738,483.736 304.384,483.041C305.331,482.898 306.216,482.604 307.021,482.189C308.146,483.435 309.854,484.111 311.638,483.845C314.472,483.421 316.426,480.779 316.002,477.946C315.828,476.787 315.284,475.775 314.507,475.014C315.97,473.903 316.799,472.052 316.508,470.105Z" style="fill:rgb(100,190,103);fill-rule:nonzero;"/>
        <rect x="427.701" y="483.091" width="3.104" height="14.798" style="fill:rgb(110,77,43);fill-rule:nonzero;"/>
        <path d="M442.395,469.607C443.485,468.608 444.168,467.175 444.168,465.579C444.168,462.563 441.725,460.119 438.709,460.119C438.436,460.119 438.166,460.141 437.901,460.179C437.902,460.16 437.903,460.141 437.903,460.119C437.903,455.77 434.378,452.243 430.029,452.243C426.096,452.243 422.836,455.126 422.248,458.895C422.039,458.878 421.833,458.865 421.622,458.865C417.271,458.865 413.744,462.393 413.744,466.742C413.744,468.172 414.127,469.513 414.794,470.667C413.264,472.105 412.306,474.145 412.306,476.41C412.306,480.759 415.833,484.284 420.182,484.284C420.847,484.284 421.492,484.201 422.108,484.047C423.667,486.48 426.392,488.097 429.497,488.097C432.475,488.097 435.104,486.609 436.689,484.341C437.144,484.42 437.607,484.464 438.083,484.464C442.531,484.464 446.138,480.857 446.138,476.41C446.138,473.547 444.645,471.035 442.395,469.607Z" style="fill:rgb(85,186,95);fill-rule:nonzero;"/>
        <path d="M440.047,468.341C439.793,466.653 438.754,465.277 437.354,464.53C436.554,461.022 433.171,458.668 429.554,459.21C427.932,459.453 426.525,460.238 425.49,461.354C424.464,460.684 423.196,460.37 421.889,460.566C419.054,460.991 417.102,463.632 417.523,466.465C417.691,467.58 418.204,468.559 418.935,469.311C418.266,470.764 417.995,472.419 418.25,474.12C418.943,478.767 423.274,481.971 427.923,481.276C428.869,481.134 429.755,480.84 430.559,480.426C431.686,481.671 433.392,482.347 435.177,482.079C438.01,481.656 439.964,479.016 439.54,476.182C439.367,475.021 438.821,474.011 438.045,473.249C439.509,472.14 440.338,470.286 440.047,468.341Z" style="fill:rgb(100,190,103);fill-rule:nonzero;"/>
        <rect x="451.82" y="491.916" width="3.105" height="14.796" style="fill:rgb(110,77,43);fill-rule:nonzero;"/>
        <path d="M466.516,478.432C467.605,477.432 468.29,476 468.29,474.404C468.29,471.388 465.845,468.942 462.829,468.942C462.556,468.942 462.285,468.965 462.021,469.004C462.022,468.984 462.023,468.965 462.023,468.942C462.023,464.595 458.498,461.066 454.148,461.066C450.216,461.066 446.956,463.948 446.366,467.719C446.16,467.702 445.953,467.691 445.741,467.691C441.393,467.691 437.865,471.218 437.865,475.566C437.865,476.997 438.247,478.337 438.914,479.492C437.384,480.929 436.427,482.968 436.427,485.233C436.427,489.583 439.951,493.109 444.301,493.109C444.967,493.109 445.612,493.025 446.229,492.872C447.787,495.305 450.513,496.919 453.619,496.919C456.596,496.919 459.224,495.435 460.811,493.165C461.263,493.244 461.729,493.287 462.203,493.287C466.653,493.287 470.258,489.683 470.258,485.233C470.258,482.371 468.764,479.86 466.516,478.432Z" style="fill:rgb(85,186,95);fill-rule:nonzero;"/>
        <path d="M464.168,477.167C463.914,475.478 462.874,474.102 461.477,473.354C460.675,469.847 457.291,467.492 453.674,468.034C452.05,468.277 450.646,469.063 449.609,470.178C448.583,469.506 447.316,469.195 446.01,469.391C443.175,469.813 441.22,472.456 441.645,475.289C441.811,476.404 442.323,477.383 443.055,478.134C442.385,479.587 442.115,481.244 442.369,482.944C443.065,487.592 447.396,490.795 452.041,490.101C452.988,489.959 453.874,489.664 454.68,489.25C455.806,490.493 457.513,491.171 459.297,490.903C462.13,490.48 464.085,487.839 463.661,485.006C463.487,483.847 462.942,482.836 462.164,482.073C463.629,480.963 464.457,479.11 464.168,477.167Z" style="fill:rgb(100,190,103);fill-rule:nonzero;"/>
        <rect x="654.066" y="477.226" width="2.856" height="13.626" style="fill:rgb(110,77,43);fill-rule:nonzero;"/>
        <path d="M667.598,464.807C668.602,463.888 669.231,462.569 669.231,461.098C669.231,458.322 666.981,456.07 664.203,456.07C663.95,456.07 663.701,456.09 663.46,456.126C663.46,456.108 663.462,456.09 663.462,456.07C663.462,452.066 660.214,448.817 656.21,448.817C652.587,448.817 649.585,451.472 649.042,454.943C648.854,454.928 648.661,454.917 648.467,454.917C644.461,454.917 641.214,458.165 641.214,462.171C641.214,463.486 641.566,464.72 642.181,465.785C640.771,467.108 639.889,468.986 639.889,471.074C639.889,475.078 643.136,478.325 647.141,478.325C647.754,478.325 648.349,478.248 648.915,478.106C650.35,480.348 652.86,481.834 655.721,481.834C658.462,481.834 660.884,480.466 662.343,478.377C662.761,478.449 663.189,478.489 663.627,478.489C667.725,478.489 671.044,475.17 671.044,471.074C671.044,468.438 669.668,466.124 667.598,464.807Z" style="fill:rgb(85,186,95);fill-rule:nonzero;"/>
        <path d="M665.436,463.644C665.201,462.088 664.244,460.82 662.957,460.134C662.218,456.903 659.103,454.735 655.771,455.234C654.276,455.457 652.983,456.182 652.03,457.208C651.084,456.591 649.916,456.303 648.714,456.483C646.104,456.873 644.303,459.307 644.694,461.915C644.848,462.941 645.319,463.843 645.993,464.534C645.375,465.873 645.127,467.398 645.362,468.965C646.002,473.244 649.991,476.194 654.27,475.554C655.141,475.424 655.956,475.152 656.698,474.771C657.735,475.917 659.307,476.538 660.95,476.293C663.56,475.903 665.359,473.471 664.968,470.862C664.809,469.795 664.307,468.863 663.591,468.163C664.939,467.14 665.701,465.435 665.436,463.644Z" style="fill:rgb(100,190,103);fill-rule:nonzero;"/>
        <rect x="632.837" y="481.72" width="3.22" height="15.35" style="fill:rgb(110,77,43);fill-rule:nonzero;"/>
        <path d="M648.08,467.73C649.213,466.696 649.922,465.208 649.922,463.554C649.922,460.426 647.387,457.889 644.257,457.889C643.974,457.889 643.691,457.91 643.42,457.952C643.42,457.933 643.422,457.91 643.422,457.889C643.422,453.379 639.764,449.719 635.252,449.719C631.171,449.719 627.79,452.709 627.179,456.618C626.966,456.601 626.749,456.591 626.531,456.591C622.019,456.591 618.359,460.249 618.359,464.762C618.359,466.242 618.756,467.634 619.448,468.832C617.86,470.322 616.867,472.438 616.867,474.79C616.867,479.302 620.526,482.958 625.038,482.958C625.729,482.958 626.397,482.873 627.035,482.712C628.651,485.235 631.479,486.912 634.702,486.912C637.789,486.912 640.518,485.37 642.162,483.017C642.633,483.099 643.115,483.145 643.609,483.145C648.224,483.145 651.962,479.404 651.962,474.79C651.962,471.82 650.413,469.214 648.08,467.73Z" style="fill:rgb(85,186,95);fill-rule:nonzero;"/>
        <path d="M645.645,466.421C645.382,464.667 644.305,463.241 642.854,462.466C642.021,458.826 638.512,456.385 634.758,456.947C633.074,457.198 631.618,458.014 630.545,459.171C629.478,458.475 628.164,458.151 626.809,458.354C623.867,458.793 621.84,461.532 622.281,464.473C622.453,465.631 622.986,466.644 623.742,467.423C623.049,468.932 622.77,470.65 623.032,472.414C623.754,477.235 628.247,480.559 633.066,479.837C634.048,479.689 634.967,479.384 635.804,478.955C636.971,480.246 638.743,480.947 640.593,480.669C643.532,480.231 645.56,477.491 645.119,474.553C644.94,473.35 644.374,472.301 643.567,471.511C645.087,470.357 645.947,468.438 645.645,466.421Z" style="fill:rgb(100,190,103);fill-rule:nonzero;"/>
        <rect x="633.513" y="421.744" width="4.217" height="14.608" style="fill:rgb(110,77,43);fill-rule:nonzero;"/>
        <path d="M648.253,424.863L644.004,419.06L644.873,419.06C646.922,419.06 647.609,417.705 646.398,416.053L641.757,409.708L643.26,409.708C644.952,409.708 645.521,408.591 644.52,407.226L637.44,397.55C636.439,396.184 634.805,396.184 633.805,397.55L626.727,407.226C625.728,408.591 626.293,409.708 627.984,409.708L629.486,409.708L624.846,416.053C623.635,417.705 624.322,419.06 626.371,419.06L627.24,419.06L622.993,424.863C621.574,426.804 622.378,428.39 624.781,428.39L646.465,428.39C648.869,428.39 649.672,426.804 648.253,424.863Z" style="fill:rgb(90,133,108);fill-rule:nonzero;"/>
        <path d="M633.805,397.55L626.727,407.226C625.728,408.591 626.293,409.708 627.984,409.708L629.486,409.708L624.846,416.053C623.635,417.705 624.322,419.06 626.371,419.06L627.24,419.06L622.993,424.863C621.574,426.804 622.378,428.39 624.781,428.39L635.624,428.39L635.624,396.525C634.965,396.525 634.304,396.866 633.805,397.55Z" style="fill:rgb(78,111,89);fill-rule:nonzero;"/>
        <rect x="577.924" y="476.121" width="5.015" height="17.371" style="fill:rgb(110,77,43);fill-rule:nonzero;"/>
        <path d="M595.451,479.832L590.396,472.93L591.434,472.93C593.869,472.93 594.685,471.318 593.246,469.353L587.727,461.811L589.515,461.811C591.526,461.811 592.2,460.479 591.011,458.856L582.593,447.351C581.405,445.726 579.459,445.726 578.271,447.351L569.852,458.856C568.664,460.479 569.338,461.811 571.35,461.811L573.136,461.811L567.615,469.353C566.177,471.318 566.994,472.93 569.432,472.93L570.465,472.93L565.412,479.832C563.725,482.138 564.684,484.022 567.54,484.022L593.322,484.022C596.18,484.022 597.138,482.138 595.451,479.832Z" style="fill:rgb(90,133,108);fill-rule:nonzero;"/>
        <path d="M578.271,447.351L569.852,458.856C568.664,460.479 569.338,461.811 571.35,461.811L573.136,461.811L567.615,469.353C566.177,471.318 566.994,472.93 569.432,472.93L570.465,472.93L565.412,479.832C563.725,482.138 564.684,484.022 567.54,484.022L580.434,484.022L580.434,446.134C579.648,446.134 578.863,446.539 578.271,447.351Z" style="fill:rgb(78,111,89);fill-rule:nonzero;"/>
        <rect x="468.194" y="432.725" width="3.593" height="12.45" style="fill:rgb(110,77,43);fill-rule:nonzero;"/>
        <path d="M480.756,435.386L477.135,430.439L477.877,430.439C479.622,430.439 480.207,429.285 479.177,427.875L475.22,422.469L476.5,422.469C477.942,422.469 478.426,421.515 477.573,420.351L471.539,412.105C470.687,410.942 469.293,410.942 468.441,412.105L462.407,420.351C461.559,421.515 462.039,422.469 463.482,422.469L464.762,422.469L460.807,427.875C459.774,429.285 460.361,430.439 462.107,430.439L462.847,430.439L459.226,435.386C458.018,437.039 458.703,438.391 460.75,438.391L479.231,438.391C481.279,438.391 481.966,437.039 480.756,435.386Z" style="fill:rgb(90,133,108);fill-rule:nonzero;"/>
        <path d="M468.441,412.105L462.407,420.351C461.559,421.515 462.039,422.469 463.482,422.469L464.762,422.469L460.807,427.875C459.774,429.285 460.361,430.439 462.107,430.439L462.847,430.439L459.226,435.386C458.018,437.039 458.703,438.391 460.75,438.391L469.99,438.391L469.99,411.232C469.43,411.232 468.869,411.523 468.441,412.105Z" style="fill:rgb(78,111,89);fill-rule:nonzero;"/>
        <rect x="317.872" y="442.471" width="3.592" height="12.449" style="fill:rgb(110,77,43);fill-rule:nonzero;"/>
        <path d="M330.432,445.129L326.813,440.182L327.552,440.182C329.299,440.182 329.884,439.028 328.853,437.619L324.896,432.213L326.178,432.213C327.619,432.213 328.103,431.259 327.25,430.095L321.216,421.85C320.365,420.686 318.971,420.686 318.12,421.85L312.085,430.095C311.233,431.259 311.717,432.213 313.159,432.213L314.439,432.213L310.483,437.619C309.451,439.028 310.037,440.182 311.784,440.182L312.523,440.182L308.903,445.129C307.693,446.782 308.38,448.133 310.427,448.133L328.908,448.133C330.956,448.133 331.642,446.782 330.432,445.129Z" style="fill:rgb(90,133,108);fill-rule:nonzero;"/>
        <path d="M318.12,421.85L312.085,430.095C311.233,431.259 311.717,432.213 313.159,432.213L314.439,432.213L310.483,437.619C309.451,439.028 310.037,440.182 311.784,440.182L312.523,440.182L308.903,445.129C307.693,446.782 308.38,448.133 310.427,448.133L319.668,448.133L319.668,420.977C319.107,420.977 318.545,421.268 318.12,421.85Z" style="fill:rgb(78,111,89);fill-rule:nonzero;"/>
        <rect x="210.658" y="410.703" width="3.592" height="12.449" style="fill:rgb(110,77,43);fill-rule:nonzero;"/>
        <path d="M223.219,413.362L219.598,408.415L220.339,408.415C222.085,408.415 222.67,407.261 221.638,405.852L217.682,400.446L218.963,400.446C220.405,400.446 220.888,399.491 220.036,398.328L214.003,390.082C213.152,388.918 211.757,388.918 210.906,390.082L204.872,398.328C204.02,399.491 204.502,400.446 205.945,400.446L207.225,400.446L203.27,405.852C202.237,407.261 202.823,408.415 204.57,408.415L205.309,408.415L201.689,413.362C200.479,415.016 201.167,416.366 203.214,416.366L221.694,416.366C223.742,416.366 224.427,415.016 223.219,413.362Z" style="fill:rgb(90,133,108);fill-rule:nonzero;"/>
        <path d="M210.906,390.082L204.872,398.328C204.02,399.491 204.502,400.446 205.945,400.446L207.225,400.446L203.27,405.852C202.237,407.261 202.823,408.415 204.57,408.415L205.309,408.415L201.689,413.362C200.479,415.016 201.167,416.366 203.214,416.366L212.454,416.366L212.454,389.209C211.894,389.209 211.331,389.5 210.906,390.082Z" style="fill:rgb(78,111,89);fill-rule:nonzero;"/>
        <rect x="208.087" y="464.22" width="4.616" height="15.995" style="fill:rgb(110,77,43);fill-rule:nonzero;"/>
        <path d="M224.225,467.637L219.573,461.281L220.525,461.281C222.77,461.281 223.521,459.798 222.195,457.987L217.112,451.042L218.759,451.042C220.611,451.042 221.231,449.817 220.137,448.322L212.384,437.727C211.291,436.231 209.5,436.231 208.406,437.727L200.653,448.322C199.56,449.817 200.179,451.042 202.033,451.042L203.677,451.042L198.595,457.987C197.269,459.798 198.022,461.281 200.267,461.281L201.216,461.281L196.564,467.637C195.01,469.759 195.893,471.496 198.523,471.496L222.266,471.496C224.897,471.496 225.779,469.759 224.225,467.637Z" style="fill:rgb(90,133,108);fill-rule:nonzero;"/>
        <path d="M208.406,437.727L200.653,448.322C199.56,449.817 200.179,451.042 202.033,451.042L203.677,451.042L198.595,457.987C197.269,459.798 198.022,461.281 200.267,461.281L201.216,461.281L196.564,467.637C195.01,469.759 195.893,471.496 198.523,471.496L210.396,471.496L210.396,436.605C209.674,436.605 208.953,436.979 208.406,437.727Z" style="fill:rgb(78,111,89);fill-rule:nonzero;"/>
        <rect x="197.421" y="430.556" width="3.593" height="12.451" style="fill:rgb(110,77,43);fill-rule:nonzero;"/>
        <path d="M209.982,433.216L206.361,428.27L207.103,428.27C208.85,428.27 209.434,427.115 208.402,425.706L204.446,420.301L205.727,420.301C207.169,420.301 207.652,419.348 206.8,418.184L200.766,409.937C199.915,408.773 198.521,408.773 197.669,409.937L191.635,418.184C190.784,419.348 191.267,420.301 192.709,420.301L193.989,420.301L190.033,425.706C189.001,427.115 189.586,428.27 191.333,428.27L192.073,428.27L188.453,433.216C187.243,434.869 187.929,436.222 189.977,436.222L208.458,436.222C210.505,436.222 211.191,434.869 209.982,433.216Z" style="fill:rgb(90,133,108);fill-rule:nonzero;"/>
        <path d="M197.669,409.937L191.635,418.184C190.784,419.348 191.267,420.301 192.709,420.301L193.989,420.301L190.033,425.706C189.001,427.115 189.586,428.27 191.333,428.27L192.073,428.27L188.453,433.216C187.243,434.869 187.929,436.222 189.977,436.222L199.218,436.222L199.218,409.063C198.656,409.063 198.095,409.354 197.669,409.937Z" style="fill:rgb(78,111,89);fill-rule:nonzero;"/>
        <rect x="167.17" y="469.93" width="4.019" height="19.174" style="fill:rgb(110,77,43);fill-rule:nonzero;"/>
        <path d="M186.208,452.459C187.62,451.166 188.506,449.309 188.506,447.241C188.506,443.335 185.339,440.168 181.432,440.168C181.077,440.168 180.729,440.194 180.387,440.246C180.387,440.219 180.389,440.194 180.389,440.168C180.389,434.532 175.821,429.964 170.184,429.964C165.089,429.964 160.867,433.699 160.104,438.58C159.836,438.559 159.565,438.545 159.293,438.545C153.658,438.545 149.089,443.113 149.089,448.749C149.089,450.601 149.585,452.337 150.447,453.835C148.464,455.695 147.225,458.338 147.225,461.273C147.225,466.907 151.793,471.477 157.429,471.477C158.29,471.477 159.125,471.368 159.924,471.167C161.943,474.321 165.475,476.414 169.497,476.414C173.355,476.414 176.762,474.488 178.817,471.55C179.402,471.653 180.005,471.709 180.621,471.709C186.385,471.709 191.057,467.036 191.057,461.273C191.057,457.565 189.122,454.311 186.208,452.459Z" style="fill:rgb(85,186,95);fill-rule:nonzero;"/>
        <path d="M183.165,450.82C182.838,448.634 181.491,446.852 179.679,445.884C178.64,441.338 174.259,438.289 169.57,438.99C167.469,439.306 165.648,440.323 164.307,441.769C162.976,440.898 161.335,440.494 159.639,440.748C155.967,441.296 153.437,444.718 153.985,448.389C154.202,449.835 154.865,451.103 155.811,452.077C154.943,453.96 154.595,456.104 154.925,458.307C155.825,464.328 161.437,468.479 167.457,467.579C168.683,467.396 169.83,467.014 170.873,466.477C172.333,468.089 174.543,468.967 176.855,468.619C180.527,468.07 183.058,464.648 182.509,460.979C182.285,459.477 181.579,458.165 180.572,457.178C182.468,455.74 183.541,453.34 183.165,450.82Z" style="fill:rgb(100,190,103);fill-rule:nonzero;"/>
    </g>
</svg>
